<?xml version="1.0" standalone="no"?><svg xmlns="http://www.w3.org/2000/svg" viewBox="0 0 1440 320"><path fill="#273036" fill-opacity="1" d="M0,160L12,170.7C24,181,48,203,72,176C96,149,120,75,144,64C168,53,192,107,216,128C240,149,264,139,288,149.3C312,160,336,192,360,192C384,192,408,160,432,133.3C456,107,480,85,504,106.7C528,128,552,192,576,186.7C600,181,624,107,648,106.7C672,107,696,181,720,192C744,203,768,149,792,117.3C816,85,840,75,864,90.7C888,107,912,149,936,181.3C960,213,984,235,1008,234.7C1032,235,1056,213,1080,218.7C1104,224,1128,256,1152,250.7C1176,245,1200,203,1224,192C1248,181,1272,203,1296,213.3C1320,224,1344,224,1368,208C1392,192,1416,160,1428,144L1440,128L1440,0L1428,0C1416,0,1392,0,1368,0C1344,0,1320,0,1296,0C1272,0,1248,0,1224,0C1200,0,1176,0,1152,0C1128,0,1104,0,1080,0C1056,0,1032,0,1008,0C984,0,960,0,936,0C912,0,888,0,864,0C840,0,816,0,792,0C768,0,744,0,720,0C696,0,672,0,648,0C624,0,600,0,576,0C552,0,528,0,504,0C480,0,456,0,432,0C408,0,384,0,360,0C336,0,312,0,288,0C264,0,240,0,216,0C192,0,168,0,144,0C120,0,96,0,72,0C48,0,24,0,12,0L0,0Z"></path></svg>